<svg xmlns="http://www.w3.org/2000/svg" version="1.1" xmlns:xlink="http://www.w3.org/1999/xlink" xmlns:svgjs="http://svgjs.dev/svgjs" width="1000" height="623" viewBox="0 0 1000 623"><g transform="matrix(1,0,0,1,-0.606011192639869,0.2522267206477409)"><svg viewBox="0 0 396 247" data-background-color="#ffffff" preserveAspectRatio="xMidYMid meet" height="623" width="1000" xmlns="http://www.w3.org/2000/svg" xmlns:xlink="http://www.w3.org/1999/xlink"><g id="tight-bounds" transform="matrix(1,0,0,1,0.23998043228539245,-0.09999999999999432)"><svg viewBox="0 0 395.52 247.2" height="247.2" width="395.52"><g><svg viewBox="0 0 395.52 247.2" height="247.2" width="395.52"><g transform="matrix(1,0,0,1,0,68.1478314381271)"><svg viewBox="0 0 395.52 110.9043371237458" height="110.9043371237458" width="395.52"><g><svg viewBox="0 0 395.52 110.9043371237458" height="110.9043371237458" width="395.52"><g><svg viewBox="0 0 395.52 110.9043371237458" height="110.9043371237458" width="395.52"><g><svg viewBox="0 0 395.52 110.9043371237458" height="110.9043371237458" width="395.52"><g><svg viewBox="0 0 395.52 110.9043371237458" height="110.9043371237458" width="395.52"><g transform="matrix(1,0,0,1,0,0)"><svg width="395.52" viewBox="0.6599999070167542 -36.18000030517578 284.6899719238281 76.43000793457031" height="110.9043371237458" data-palette-color="#61777f"><svg></svg><svg></svg><g class="undefined-text-0" data-fill-palette-color="primary" id="text-0"><path xmlns="http://www.w3.org/2000/svg" d="M26.25-12.99v0c0 2.233-0.387 4.183-1.16 5.85-0.773 1.667-1.833 3.053-3.18 4.16-1.34 1.107-2.91 1.937-4.71 2.49-1.8 0.553-3.733 0.83-5.8 0.83v0c-0.793 0-1.667-0.107-2.62-0.32-0.953-0.207-1.92-0.47-2.9-0.79-0.973-0.32-1.913-0.66-2.82-1.02-0.9-0.367-1.7-0.713-2.4-1.04v0l1.07-10.06c1.387 0.827 2.923 1.457 4.61 1.89 1.68 0.433 3.333 0.65 4.96 0.65v0c0.313 0 0.69-0.013 1.13-0.04 0.44-0.02 0.857-0.093 1.25-0.22 0.4-0.12 0.74-0.303 1.02-0.55 0.273-0.24 0.41-0.59 0.41-1.05v0c0-0.307-0.097-0.57-0.29-0.79-0.193-0.22-0.447-0.4-0.76-0.54-0.307-0.14-0.657-0.243-1.05-0.31-0.387-0.073-0.767-0.127-1.14-0.16-0.38-0.033-0.73-0.05-1.05-0.05-0.327 0-0.59 0-0.79 0v0c-1.4 0-2.673-0.243-3.82-0.73-1.147-0.493-2.13-1.173-2.95-2.04-0.82-0.873-1.46-1.907-1.92-3.1-0.453-1.2-0.68-2.5-0.68-3.9v0c0-1.92 0.387-3.64 1.16-5.16 0.773-1.52 1.807-2.813 3.1-3.88 1.293-1.067 2.78-1.887 4.46-2.46 1.673-0.567 3.407-0.85 5.2-0.85v0c0.793 0 1.613 0.027 2.46 0.08 0.847 0.06 1.69 0.163 2.53 0.31 0.84 0.147 1.657 0.333 2.45 0.56 0.8 0.227 1.557 0.51 2.27 0.85v0l-0.93 9.92c-1.107-0.373-2.263-0.687-3.47-0.94-1.213-0.253-2.4-0.38-3.56-0.38v0c-0.207 0-0.477 0.003-0.81 0.01-0.34 0.007-0.69 0.03-1.05 0.07-0.367 0.047-0.74 0.11-1.12 0.19-0.373 0.08-0.707 0.19-1 0.33-0.293 0.133-0.527 0.317-0.7 0.55-0.18 0.227-0.263 0.493-0.25 0.8v0c0.02 0.36 0.153 0.65 0.4 0.87 0.253 0.22 0.58 0.39 0.98 0.51 0.4 0.12 0.84 0.207 1.32 0.26 0.48 0.047 0.957 0.073 1.43 0.08 0.473 0.013 0.913 0.013 1.32 0 0.407-0.007 0.74 0.007 1 0.04v0c1.3 0.08 2.47 0.357 3.51 0.83 1.04 0.473 1.923 1.1 2.65 1.88 0.727 0.78 1.28 1.713 1.66 2.8 0.387 1.08 0.58 2.27 0.58 3.57zM56.23-23.49v0c0 1.58-0.237 2.98-0.71 4.2-0.473 1.22-1.12 2.287-1.94 3.2-0.827 0.913-1.793 1.687-2.9 2.32-1.107 0.633-2.29 1.15-3.55 1.55-1.26 0.4-2.567 0.693-3.92 0.88-1.347 0.187-2.673 0.287-3.98 0.3v0 11.38h-11.37c0-3.727 0.007-7.437 0.02-11.13 0.02-3.693 0.043-7.42 0.07-11.18v0c0.033-1.987 0.043-3.973 0.03-5.96-0.02-1.987 0.02-3.99 0.12-6.01v0c2.087-0.613 4.17-1.077 6.25-1.39 2.087-0.307 4.237-0.46 6.45-0.46v0c1.253 0 2.507 0.1 3.76 0.3 1.253 0.207 2.453 0.53 3.6 0.97 1.147 0.44 2.21 0.99 3.19 1.65 0.987 0.66 1.84 1.443 2.56 2.35 0.713 0.913 1.277 1.953 1.69 3.12 0.42 1.16 0.63 2.463 0.63 3.91zM45.39-22.66v0c0-1.053-0.323-1.877-0.97-2.47-0.64-0.6-1.473-0.9-2.5-0.9v0c-0.34 0-0.693 0.03-1.06 0.09-0.367 0.06-0.713 0.13-1.04 0.21v0l-0.29 7.13c0.227 0.033 0.447 0.05 0.66 0.05 0.207 0 0.423 0 0.65 0v0c0.587 0 1.153-0.1 1.7-0.3 0.547-0.193 1.03-0.473 1.45-0.84 0.427-0.367 0.767-0.797 1.02-1.29 0.253-0.5 0.38-1.06 0.38-1.68zM76.25-34.96l9.52 32.86-12.11 1.56-1.47-5.51h-5.56l-1.22 5.51-12.46-1.22 9.72-32.52zM67.65-13.53h3.66l-1.85-8.49zM109.84-34.33v0l-1.37 10.31c-0.473-0.133-0.943-0.223-1.41-0.27-0.473-0.053-0.947-0.08-1.42-0.08v0c-1.207 0-2.353 0.16-3.44 0.48-1.093 0.32-2.06 0.803-2.9 1.45-0.833 0.653-1.5 1.467-2 2.44-0.493 0.98-0.74 2.13-0.74 3.45v0c0 0.847 0.133 1.577 0.4 2.19 0.267 0.62 0.647 1.133 1.14 1.54 0.487 0.407 1.063 0.71 1.73 0.91 0.667 0.193 1.4 0.29 2.2 0.29v0c0.6 0 1.227-0.067 1.88-0.2 0.647-0.127 1.287-0.297 1.92-0.51 0.64-0.213 1.26-0.457 1.86-0.73 0.6-0.28 1.153-0.567 1.66-0.86v0l-0.98 11.48c-0.633 0.327-1.32 0.617-2.06 0.87-0.74 0.247-1.5 0.463-2.28 0.65-0.78 0.193-1.563 0.337-2.35 0.43-0.78 0.1-1.527 0.15-2.24 0.15v0c-2.067 0-3.997-0.383-5.79-1.15-1.787-0.767-3.34-1.817-4.66-3.15-1.32-1.333-2.357-2.907-3.11-4.72-0.76-1.813-1.14-3.77-1.14-5.87v0c0-2.787 0.4-5.413 1.2-7.88 0.793-2.467 1.963-4.627 3.51-6.48 1.547-1.853 3.463-3.317 5.75-4.39 2.287-1.08 4.92-1.62 7.9-1.62v0c1.127 0 2.28 0.09 3.46 0.27 1.18 0.18 2.273 0.513 3.28 1zM111.99-35.21h22.51c-0.1 1.533-0.19 3.05-0.27 4.55-0.08 1.493-0.187 3.007-0.32 4.54v0l-10.35 0.53-0.24 3.08h7.27l-0.54 7.57-7.32 0.24-0.24 3.57h6.05 4.3c-0.1 1.787-0.203 3.563-0.31 5.33-0.107 1.767-0.2 3.537-0.28 5.31v0l-21.04 0.49zM135.94-35.21h22.51c-0.1 1.533-0.19 3.05-0.27 4.55-0.08 1.493-0.187 3.007-0.32 4.54v0l-10.35 0.53v3.08h8.98l-0.48 7.57-8.55 0.24 0.05 14.46-12.35 0.24zM181.15-13.92v0l-1.02 10.84-20.56 1.62c0.1-5.687 0.21-11.337 0.33-16.95 0.12-5.613 0.27-11.26 0.45-16.94v0h12.7c-0.373 3.567-0.733 7.127-1.08 10.68-0.34 3.553-0.583 7.137-0.73 10.75v0c0.767 0.033 1.523 0.05 2.27 0.05 0.747 0 1.503 0 2.27 0v0c0.913 0 1.81-0.007 2.69-0.02 0.88-0.02 1.773-0.03 2.68-0.03zM182.5-33.69l12.98-0.69-2.68 33.26-10.3 0.53zM226.1-21.39l0.29 16.41c-0.767 0.96-1.71 1.797-2.83 2.51-1.12 0.72-2.323 1.317-3.61 1.79-1.287 0.467-2.607 0.82-3.96 1.06-1.353 0.233-2.64 0.35-3.86 0.35v0c-2.36 0-4.53-0.423-6.51-1.27-1.987-0.847-3.7-2.013-5.14-3.5-1.44-1.487-2.57-3.24-3.39-5.26-0.813-2.02-1.22-4.193-1.22-6.52v0c0-1.773 0.203-3.51 0.61-5.21 0.407-1.7 0.99-3.303 1.75-4.81 0.76-1.507 1.683-2.89 2.77-4.15 1.093-1.26 2.33-2.347 3.71-3.26 1.387-0.913 2.9-1.623 4.54-2.13 1.647-0.5 3.407-0.75 5.28-0.75v0c0.7 0 1.447 0.027 2.24 0.08 0.8 0.06 1.593 0.16 2.38 0.3 0.793 0.133 1.563 0.323 2.31 0.57 0.747 0.247 1.43 0.547 2.05 0.9v0l-0.68 9.33c-0.913-0.34-1.853-0.573-2.82-0.7-0.973-0.12-1.923-0.18-2.85-0.18v0c-1.3 0-2.517 0.2-3.65 0.6-1.127 0.4-2.11 0.973-2.95 1.72-0.84 0.747-1.503 1.657-1.99 2.73-0.487 1.073-0.73 2.287-0.73 3.64v0c0 0.847 0.113 1.663 0.34 2.45 0.227 0.793 0.573 1.493 1.04 2.1 0.46 0.613 1.037 1.107 1.73 1.48 0.693 0.373 1.493 0.56 2.4 0.56v0c0.62 0 1.26-0.08 1.92-0.24 0.66-0.167 1.227-0.443 1.7-0.83v0l0.1-1.91-5.86-0.09 0.29-7.33c2.427-0.08 4.85-0.147 7.27-0.2 2.427-0.06 4.87-0.14 7.33-0.24zM256.45-34.81l0.78 34.81-12.21 0.59-0.1-11.28h-5.61l-0.35 10.69h-10.93l0.93-34.33 11.62 0.54-0.74 17.53h5.42l0.05-18.85zM258.74-34.86l26.61-0.05-0.24 10.35-7.28 0.29-1.85 23.15-10.31 0.53 0.05-23.14-7.27 0.39z" fill="#61777f" fill-rule="nonzero" stroke="none" stroke-width="1" stroke-linecap="butt" stroke-linejoin="miter" stroke-miterlimit="10" stroke-dasharray="" stroke-dashoffset="0" font-family="none" font-weight="none" font-size="none" text-anchor="none" style="mix-blend-mode: normal" data-fill-palette-color="primary" opacity="1"></path><path xmlns="http://www.w3.org/2000/svg" d="M22.92 5.29l11.53-0.39-1.76 33.11-12.79 1.17-6.84-17.73-1.07 18.07h-10.99l0.88-34.62 12.21-0.59 8.44 17.58zM37.04 4.7h22.51c-0.1 1.533-0.19 3.05-0.27 4.55-0.08 1.493-0.187 3.007-0.32 4.54v0l-10.35 0.53-0.25 3.08h7.28l-0.54 7.57-7.32 0.24-0.25 3.57h6.06 4.3c-0.1 1.787-0.203 3.563-0.31 5.33-0.107 1.767-0.2 3.537-0.28 5.31v0l-21.05 0.49zM92.36 4.95l12.06 1.07-5.71 33.84-13.87 0.29-2.98-17.53-2.98 16.26-13.87 0.49-5.76-33.35 12.11-1.07 2.44 20.26 3.28-20.26h9.52l3.81 20.51zM130.4 26.92v0c0 2.233-0.387 4.183-1.16 5.85-0.773 1.667-1.833 3.053-3.18 4.16-1.34 1.107-2.91 1.937-4.71 2.49-1.8 0.553-3.733 0.83-5.8 0.83v0c-0.793 0-1.667-0.107-2.62-0.32-0.953-0.207-1.92-0.47-2.9-0.79-0.973-0.32-1.913-0.66-2.82-1.02-0.9-0.367-1.7-0.713-2.4-1.04v0l1.07-10.06c1.387 0.827 2.923 1.457 4.61 1.89 1.68 0.433 3.333 0.65 4.96 0.65v0c0.313 0 0.69-0.013 1.13-0.04 0.44-0.02 0.857-0.093 1.25-0.22 0.4-0.12 0.74-0.303 1.02-0.55 0.273-0.24 0.41-0.59 0.41-1.05v0c0-0.307-0.097-0.57-0.29-0.79-0.193-0.22-0.447-0.4-0.76-0.54-0.307-0.14-0.657-0.243-1.05-0.31-0.387-0.073-0.767-0.127-1.14-0.16-0.38-0.033-0.73-0.05-1.05-0.05-0.327 0-0.59 0-0.79 0v0c-1.4 0-2.673-0.243-3.82-0.73-1.147-0.493-2.13-1.173-2.95-2.04-0.82-0.873-1.46-1.907-1.92-3.1-0.453-1.2-0.68-2.5-0.68-3.9v0c0-1.92 0.387-3.64 1.16-5.16 0.773-1.52 1.807-2.813 3.1-3.88 1.293-1.067 2.78-1.887 4.46-2.46 1.673-0.567 3.407-0.85 5.2-0.85v0c0.793 0 1.613 0.027 2.46 0.08 0.847 0.06 1.69 0.163 2.53 0.31 0.84 0.147 1.657 0.333 2.45 0.56 0.8 0.227 1.557 0.51 2.27 0.85v0l-0.93 9.92c-1.107-0.373-2.263-0.687-3.47-0.94-1.213-0.253-2.4-0.38-3.56-0.38v0c-0.207 0-0.477 0.003-0.81 0.01-0.333 0.007-0.683 0.03-1.05 0.07-0.367 0.047-0.74 0.11-1.12 0.19-0.373 0.08-0.707 0.19-1 0.33-0.293 0.133-0.527 0.317-0.7 0.55-0.18 0.227-0.263 0.493-0.25 0.8v0c0.02 0.36 0.153 0.65 0.4 0.87 0.253 0.22 0.58 0.39 0.98 0.51 0.4 0.12 0.84 0.207 1.32 0.26 0.48 0.047 0.957 0.073 1.43 0.08 0.473 0.013 0.913 0.013 1.32 0 0.407-0.007 0.74 0.007 1 0.04v0c1.3 0.08 2.47 0.357 3.51 0.83 1.047 0.473 1.93 1.1 2.65 1.88 0.727 0.78 1.28 1.713 1.66 2.8 0.387 1.08 0.58 2.27 0.58 3.57z" fill="#c8c8c8" fill-rule="nonzero" stroke="none" stroke-width="1" stroke-linecap="butt" stroke-linejoin="miter" stroke-miterlimit="10" stroke-dasharray="" stroke-dashoffset="0" font-family="none" font-weight="none" font-size="none" text-anchor="none" style="mix-blend-mode: normal" data-fill-palette-color="secondary" opacity="1"></path></g></svg></g></svg></g></svg></g></svg></g></svg></g></svg></g></svg></g><defs></defs></svg><rect width="395.52" height="247.2" fill="none" stroke="none" visibility="hidden"></rect></g></svg></g></svg>